<svg height="32" viewBox="0 0 309 32" width="309" xmlns="http://www.w3.org/2000/svg"><g fill="none" fill-rule="evenodd"><path d="m0 7.512h2.847v2.846c.823-1.68 2.812-3.156 5.762-3.156 3.704 0 6.31 2.025 6.31 7.237v11.01h-2.846v-11.216c0-3.155-1.338-4.561-4.219-4.561-2.641 0-5.007 1.681-5.007 4.904v10.873h-2.847z" fill="#d8252c"/><path d="m32.418 16.635v-.275c0-4.527-2.503-6.791-5.522-6.791-3.327 0-5.865 2.195-5.865 6.791v.275c0 4.595 2.401 6.757 5.9 6.757 3.567 0 5.487-2.402 5.487-6.757zm-14.131-9.123h2.847v3.017c1.029-1.749 3.464-3.327 6.071-3.327 4.699 0 8.163 3.431 8.163 9.021v.274c0 5.488-3.224 9.261-8.163 9.261-2.95 0-5.042-1.475-6.071-3.259v9.192h-2.847z" fill="#d8252c"/><path d="m38.172 1.887c0-1.03.857-1.887 1.886-1.887s1.886.857 1.886 1.887c0 1.028-.857 1.885-1.886 1.885s-1.886-.857-1.886-1.885zm-2.127 27.712c2.024-.171 2.641-1.201 2.641-2.778v-19.309h2.847v19.069c0 3.43-1.509 5.281-5.488 5.419z" fill="#d8252c"/><path d="m59 32h2v-32h-2z" fill="#d8252c"/><g fill="#000105"><path d="m90.358 17.896v-.215c0-3.556-1.966-5.333-4.336-5.333-2.612 0-4.605 1.724-4.605 5.333v.215c0 3.609 1.885 5.305 4.632 5.305 2.801 0 4.309-1.885 4.309-5.305zm-11.096-7.164h2.236v2.37c.808-1.373 2.72-2.612 4.767-2.612 3.689 0 6.409 2.693 6.409 7.082v.216c0 4.31-2.531 7.272-6.409 7.272-2.317 0-3.959-1.158-4.767-2.558v7.217h-2.236z"/><path d="m95.598 10.732h2.235v2.532c.889-1.589 2.101-2.694 4.633-2.774v2.1c-2.828.135-4.633 1.023-4.633 4.498v7.729h-2.235z"/><path d="m114.291 16.414c-.216-2.908-1.724-4.066-4.04-4.066-2.289 0-3.824 1.562-4.201 4.066zm-10.638 1.509v-.216c0-4.255 2.72-7.217 6.598-7.217 3.259 0 6.329 1.965 6.329 7.002v.727h-10.611c.108 3.205 1.643 4.982 4.525 4.982 2.181 0 3.447-.807 3.743-2.451h2.235c-.484 2.828-2.827 4.31-6.005 4.31-3.987 0-6.814-2.801-6.814-7.137z"/><path d="m118.575 17.923v-.216c0-4.309 3.07-7.217 6.841-7.217 2.935 0 5.682 1.346 6.113 4.928h-2.209c-.35-2.235-1.966-3.07-3.904-3.07-2.559 0-4.525 2.047-4.525 5.359v.216c0 3.447 1.885 5.278 4.605 5.278 1.993 0 3.797-1.158 4.04-3.447h2.074c-.297 3.043-2.747 5.306-6.141 5.306-3.932 0-6.894-2.775-6.894-7.137"/><path d="m134.385 24.817h2.236v-14.085h-2.236zm-.404-18.502c0-.807.674-1.481 1.482-1.481s1.481.674 1.481 1.481c0 .808-.673 1.482-1.481 1.482s-1.482-.674-1.482-1.482z"/><path d="m139.445 20.481h2.182c.162 1.67 1.05 2.72 3.312 2.72 2.128 0 3.071-.726 3.071-2.234 0-1.483-1.104-1.967-3.286-2.371-3.662-.673-4.901-1.697-4.901-4.147 0-2.613 2.558-3.959 4.766-3.959 2.532 0 4.714 1.024 5.091 4.067h-2.155c-.323-1.536-1.185-2.209-2.962-2.209-1.616 0-2.667.808-2.667 2.019 0 1.267.701 1.779 3.286 2.237 2.909.538 4.955 1.184 4.955 4.173 0 2.559-1.75 4.283-5.171 4.283-3.366 0-5.386-1.697-5.521-4.579"/><path d="m152.989 24.817h2.235v-14.085h-2.235zm-.404-18.502c0-.807.673-1.481 1.481-1.481s1.481.674 1.481 1.481c0 .808-.673 1.482-1.481 1.482s-1.481-.674-1.481-1.482z"/><path d="m169.57 17.896v-.189c0-3.258-1.804-5.359-4.605-5.359-2.828 0-4.606 2.101-4.606 5.333v.215c0 3.205 1.751 5.305 4.606 5.305 2.828 0 4.605-2.127 4.605-5.305zm-11.527 0v-.215c0-4.229 2.936-7.191 6.922-7.191s6.921 2.936 6.921 7.163v.216c0 4.255-2.935 7.191-6.948 7.191s-6.895-3.043-6.895-7.164z"/><path d="m174.797 10.732h2.235v2.235c.647-1.319 2.209-2.477 4.525-2.477 2.908 0 4.955 1.588 4.955 5.682v8.645h-2.235v-8.806c0-2.478-1.05-3.582-3.313-3.582-2.073 0-3.932 1.319-3.932 3.85v8.538h-2.235z"/><path d="m207.976 17.896v-.189c0-3.258-1.805-5.359-4.605-5.359-2.828 0-4.606 2.101-4.606 5.333v.215c0 3.205 1.751 5.305 4.606 5.305 2.828 0 4.605-2.127 4.605-5.305zm-11.527 0v-.215c0-4.229 2.936-7.191 6.922-7.191 3.985 0 6.921 2.936 6.921 7.163v.216c0 4.255-2.936 7.191-6.948 7.191-4.013 0-6.895-3.043-6.895-7.164z"/><path d="m213.202 10.732h2.236v2.235c.646-1.319 2.208-2.477 4.524-2.477 2.909 0 4.956 1.588 4.956 5.682v8.645h-2.235v-8.806c0-2.478-1.051-3.582-3.314-3.582-2.073 0-3.931 1.319-3.931 3.85v8.538h-2.236z"/><path d="m227.669 17.923v-.216c0-4.309 3.07-7.217 6.841-7.217 2.935 0 5.682 1.346 6.113 4.928h-2.208c-.351-2.235-1.967-3.07-3.905-3.07-2.559 0-4.525 2.047-4.525 5.359v.216c0 3.447 1.885 5.278 4.606 5.278 1.992 0 3.797-1.158 4.039-3.447h2.074c-.297 3.043-2.747 5.306-6.141 5.306-3.931 0-6.894-2.775-6.894-7.137"/><path d="m254.129 17.896v-.189c0-3.258-1.804-5.359-4.605-5.359-2.828 0-4.605 2.101-4.605 5.333v.215c0 3.205 1.75 5.305 4.605 5.305 2.828 0 4.605-2.127 4.605-5.305zm-11.526 0v-.215c0-4.229 2.935-7.191 6.921-7.191s6.921 2.936 6.921 7.163v.216c0 4.255-2.935 7.191-6.948 7.191s-6.894-3.043-6.894-7.164z"/><path d="m259.412 24.817h2.262v-20.818h-2.262z"/><path d="m276.096 17.896v-.189c0-3.258-1.804-5.359-4.605-5.359-2.828 0-4.605 2.101-4.605 5.333v.215c0 3.205 1.75 5.305 4.605 5.305 2.827 0 4.605-2.127 4.605-5.305zm-11.527 0v-.215c0-4.229 2.936-7.191 6.922-7.191s6.921 2.936 6.921 7.163v.216c0 4.255-2.935 7.191-6.948 7.191s-6.895-3.043-6.895-7.164z"/><path d="m291.691 17.52v-.19c0-3.15-1.723-4.982-4.47-4.982-2.801 0-4.471 2.074-4.471 5.037v.215c0 3.07 1.966 4.902 4.336 4.902 2.612 0 4.605-1.832 4.605-4.982zm-10.962 8.105h2.291c.322 1.616 1.668 2.451 4.066 2.451 2.773 0 4.524-1.32 4.524-4.336v-2.047c-.807 1.373-2.719 2.666-4.766 2.666-3.691 0-6.41-2.8-6.41-6.678v-.189c0-3.824 2.693-7.002 6.571-7.002 2.343 0 3.798 1.131 4.605 2.504v-2.262h2.236v13.143c-.028 4.094-2.801 6.086-6.734 6.086-4.174 0-6.006-1.966-6.383-4.336z"/><path d="m301.64 23.363-5.522-12.631h2.398l4.308 10.1 3.905-10.1h2.29l-7.784 18.987h-2.261z"/></g></g></svg>